{
  "accessors": [
    {
      "bufferView": 2,
      "componentType": 5126,
      "count": 226,
      "max": [
        97.106582641601562,
        6.0583748817443848,
        15.693794250488281
      ],
      "min": [
        -97.106582641601562,
        -148.49920654296875,
        -1.9393066167831421
      ],
      "type": "VEC3"
    },
    {
      "bufferView": 2,
      "byteOffset": 2712,
      "componentType": 5126,
      "count": 226,
      "max": [
        1,
        1,
        1
      ],
      "min": [
        -1,
        -1,
        -1
      ],
      "type": "VEC3"
    },
    {
      "bufferView": 3,
      "componentType": 5126,
      "count": 226,
      "max": [
        1,
        0.70488858222961426,
        0.73499828577041626,
        1
      ],
      "min": [
        -1,
        -0.69209176301956177,
        -0.72352385520935059,
        -1
      ],
      "type": "VEC4"
    },
    {
      "bufferView": 1,
      "componentType": 5126,
      "count": 226,
      "max": [
        0.70894700288772583,
        0.34285643696784973
      ],
      "min": [
        0.082171298563480377,
        0.068771108984947205
      ],
      "type": "VEC2"
    },
    {
      "bufferView": 0,
      "componentType": 5125,
      "count": 684,
      "max": [
        225
      ],
      "min": [
        0
      ],
      "type": "SCALAR"
    },
    {
      "bufferView": 2,
      "byteOffset": 5424,
      "componentType": 5126,
      "count": 360,
      "max": [
        18.201248168945312,
        13.376931190490723,
        12.171439170837402
      ],
      "min": [
        -18.201248168945312,
        -13.783364295959473,
        0
      ],
      "type": "VEC3"
    },
    {
      "bufferView": 2,
      "byteOffset": 9744,
      "componentType": 5126,
      "count": 360,
      "max": [
        0.99443507194519043,
        0.99441045522689819,
        1
      ],
      "min": [
        -0.99443513154983521,
        -0.99441045522689819,
        -1
      ],
      "type": "VEC3"
    },
    {
      "bufferView": 3,
      "byteOffset": 3616,
      "componentType": 5126,
      "count": 360,
      "max": [
        0.99999618530273438,
        0.99521952867507935,
        0.98997795581817627,
        1
      ],
      "min": [
        -1,
        -0.99441045522689819,
        -0.98988592624664307,
        -1
      ],
      "type": "VEC4"
    },
    {
      "bufferView": 1,
      "byteOffset": 1808,
      "componentType": 5126,
      "count": 360,
      "max": [
        0.95779246091842651,
        0.98174893856048584
      ],
      "min": [
        0.030600380152463913,
        0.088628828525543213
      ],
      "type": "VEC2"
    },
    {
      "bufferView": 0,
      "byteOffset": 2736,
      "componentType": 5125,
      "count": 1020,
      "max": [
        359
      ],
      "min": [
        0
      ],
      "type": "SCALAR"
    },
    {
      "bufferView": 2,
      "byteOffset": 14064,
      "componentType": 5126,
      "count": 68,
      "max": [
        3.6691384315490723,
        11.336610794067383,
        14.999998092651367
      ],
      "min": [
        -3.6691384315490723,
        -11.336610794067383,
        0
      ],
      "type": "VEC3"
    },
    {
      "bufferView": 2,
      "byteOffset": 14880,
      "componentType": 5126,
      "count": 68,
      "max": [
        1,
        0.99049878120422363,
        0.93026947975158691
      ],
      "min": [
        -1,
        -0.98957490921020508,
        -0.93026900291442871
      ],
      "type": "VEC3"
    },
    {
      "bufferView": 3,
      "byteOffset": 9376,
      "componentType": 5126,
      "count": 68,
      "max": [
        1,
        0.040354970842599869,
        0.9995720386505127,
        1
      ],
      "min": [
        -0.0061273043975234032,
        -0.037263255566358566,
        -0.99964052438735962,
        -1
      ],
      "type": "VEC4"
    },
    {
      "bufferView": 1,
      "byteOffset": 4688,
      "componentType": 5126,
      "count": 68,
      "max": [
        0.99118351936340332,
        0.3577372133731842
      ],
      "min": [
        0.9045453667640686,
        0.073290072381496429
      ],
      "type": "VEC2"
    },
    {
      "bufferView": 0,
      "byteOffset": 6816,
      "componentType": 5125,
      "count": 156,
      "max": [
        67
      ],
      "min": [
        0
      ],
      "type": "SCALAR"
    }
  ],
  "asset": {
    "generator": "Sketchfab (OSG glTF plugin)",
    "version": "2.0"
  },
  "bufferViews": [
    {
      "buffer": 0,
      "byteLength": 7440,
      "byteOffset": 0,
      "name": "floatBufferViews",
      "target": 34963
    },
    {
      "buffer": 0,
      "byteLength": 5232,
      "byteOffset": 7440,
      "byteStride": 8,
      "name": "floatBufferViews",
      "target": 34962
    },
    {
      "buffer": 0,
      "byteLength": 15696,
      "byteOffset": 12672,
      "byteStride": 12,
      "name": "floatBufferViews",
      "target": 34962
    },
    {
      "buffer": 0,
      "byteLength": 10464,
      "byteOffset": 28368,
      "byteStride": 16,
      "name": "floatBufferViews",
      "target": 34962
    }
  ],
  "buffers": [
    {
      "byteLength": 38832,
      "uri": "scene.bin"
    }
  ],
  "images": [
    {
      "uri": "textures/Projector_0_baseColor.png"
    },
    {
      "uri": "textures/Material%20%2327_baseColor.png"
    },
    {
      "uri": "textures/Projector_baseColor.png"
    }
  ],
  "materials": [
    {
      "doubleSided": true,
      "emissiveFactor": [
        0,
        0,
        0
      ],
      "name": "Material #27",
      "pbrMetallicRoughness": {
        "baseColorFactor": [
          1,
          1,
          1,
          1
        ],
        "baseColorTexture": {
          "index": 1,
          "texCoord": 0
        },
        "metallicFactor": 0,
        "roughnessFactor": 0.89297135959999996
      }
    },
    {
      "doubleSided": true,
      "emissiveFactor": [
        0,
        0,
        0
      ],
      "name": "Projector",
      "pbrMetallicRoughness": {
        "baseColorFactor": [
          1,
          1,
          1,
          1
        ],
        "baseColorTexture": {
          "index": 2,
          "texCoord": 0
        },
        "metallicFactor": 0,
        "roughnessFactor": 0.89297135959999996
      }
    },
    {
      "doubleSided": true,
      "emissiveFactor": [
        0,
        0,
        0
      ],
      "name": "Projector_0",
      "pbrMetallicRoughness": {
        "baseColorFactor": [
          1,
          1,
          1,
          1
        ],
        "baseColorTexture": {
          "index": 0,
          "texCoord": 0
        },
        "metallicFactor": 0,
        "roughnessFactor": 0.89297135959999996
      }
    }
  ],
  "meshes": [
    {
      "name": "Projector Screen_Material #27_0",
      "primitives": [
        {
          "attributes": {
            "NORMAL": 1,
            "POSITION": 0,
            "TANGENT": 2,
            "TEXCOORD_0": 3
          },
          "indices": 4,
          "material": 0,
          "mode": 4
        }
      ]
    },
    {
      "name": "Projector_Projector_0",
      "primitives": [
        {
          "attributes": {
            "NORMAL": 6,
            "POSITION": 5,
            "TANGENT": 7,
            "TEXCOORD_0": 8
          },
          "indices": 9,
          "material": 1,
          "mode": 4
        }
      ]
    },
    {
      "name": "Remote_Projector_0",
      "primitives": [
        {
          "attributes": {
            "NORMAL": 11,
            "POSITION": 10,
            "TANGENT": 12,
            "TEXCOORD_0": 13
          },
          "indices": 14,
          "material": 2,
          "mode": 4
        }
      ]
    }
  ],
  "nodes": [
    {
      "children": [
        1
      ],
      "name": "RootNode (gltf orientation matrix)",
      "rotation": [
        -0.70710678118654746,
        -0,
        -0,
        0.70710678118654757
      ]
    },
    {
      "children": [
        2
      ],
      "name": "RootNode (model correction matrix)"
    },
    {
      "children": [
        3
      ],
      "matrix": [
        1,
        0,
        0,
        0,
        0,
        0,
        1,
        0,
        0,
        -1,
        0,
        0,
        0,
        0,
        0,
        1
      ],
      "name": "307e7056c5c24937ab19f2ea100bdc1d.fbx"
    },
    {
      "children": [
        4,
        8,
        11
      ],
      "name": "RootNode"
    },
    {
      "children": [
        5
      ],
      "matrix": [
        1,
        0,
        0,
        0,
        0,
        0.69037562608717951,
        1.1247647201615841e-07,
        0,
        0,
        -7.4129012308144398e-08,
        0.45500060915946355,
        0,
        0,
        0,
        0,
        1
      ],
      "name": "Projector Screen"
    },
    {
      "children": [
        7
      ],
      "matrix": [
        1,
        0,
        -0,
        0,
        0,
        1,
        0,
        0,
        0,
        0,
        1,
        0,
        4.8652076721191406,
        137.27305603027344,
        -2.288818359375e-05,
        1
      ],
      "name": ""
    },
    {
      "mesh": 0,
      "name": "Projector Screen_Material #27_0"
    },
    {
      "children": [
        6
      ],
      "name": "Geode"
    },
    {
      "children": [
        10
      ],
      "matrix": [
        0.89005684852600098,
        0,
        0,
        0,
        0,
        2.0617835433397818e-16,
        -0.92854475975036621,
        0,
        0,
        0.86896300315856934,
        1.9294854673081326e-16,
        0,
        -22.886444091796875,
        0,
        40.295265197753906,
        1
      ],
      "name": "Projector"
    },
    {
      "mesh": 1,
      "name": "Projector_Projector_0"
    },
    {
      "children": [
        9
      ],
      "name": "Geode"
    },
    {
      "children": [
        13
      ],
      "matrix": [
        1,
        0,
        0,
        0,
        0,
        2.2204460492503131e-16,
        -1,
        0,
        0,
        0.18558813631534576,
        4.1208844406913806e-17,
        0,
        17.601200103759766,
        0,
        35.123447418212891,
        1
      ],
      "name": "Remote"
    },
    {
      "mesh": 2,
      "name": "Remote_Projector_0"
    },
    {
      "children": [
        12
      ],
      "name": "Geode"
    }
  ],
  "samplers": [
    {
      "magFilter": 9729,
      "minFilter": 9987,
      "wrapS": 10497,
      "wrapT": 10497
    }
  ],
  "scene": 0,
  "scenes": [
    {
      "name": "OSG_Scene",
      "nodes": [
        0
      ]
    }
  ],
  "textures": [
    {
      "sampler": 0,
      "source": 0
    },
    {
      "sampler": 0,
      "source": 1
    },
    {
      "sampler": 0,
      "source": 2
    }
  ]
}

